<svg xmlns="http://www.w3.org/2000/svg" viewBox="0 0 32 32">
  <!-- Sylveon pink rounded background -->
  <rect width="32" height="32" rx="8" fill="#FFB7C5"/>
  <!-- Gold 4-pointed sparkle star -->
  <path d="M16 4
    C16 4 16.8 11.2 19.2 12.8
    C21.6 14.4 28 16 28 16
    C28 16 21.6 17.6 19.2 19.2
    C16.8 20.8 16 28 16 28
    C16 28 15.2 20.8 12.8 19.2
    C10.4 17.6 4 16 4 16
    C4 16 10.4 14.4 12.8 12.8
    C15.2 11.2 16 4 16 4Z"
    fill="#FFD700"/>
  <!-- Small highlight dots -->
  <circle cx="7"  cy="7"  r="1.5" fill="white" opacity="0.7"/>
  <circle cx="25" cy="7"  r="1.5" fill="white" opacity="0.7"/>
  <circle cx="25" cy="25" r="1.5" fill="white" opacity="0.7"/>
  <circle cx="7"  cy="25" r="1.5" fill="white" opacity="0.7"/>
</svg>
